<?xml version="1.0" encoding="UTF-8" standalone="no"?>
<!-- Created with Inkscape (http://www.inkscape.org/) -->

<svg
   width="96.324997pt"
   height="24pt"
   viewBox="0 0 96.324998 24"
   version="1.1"
   id="svg1"
   xmlns="http://www.w3.org/2000/svg"
   xmlns:svg="http://www.w3.org/2000/svg">
  <path
     d="M 7.4982129,22.000005 Q 3.8191113,20.967813 3.8191113,17.247832 v -2.033725 q 0,-2.156362 -1.8191114,-2.156362 v -2.115484 q 1.7782325,0 1.8191114,-2.0337255 V 6.7419534 q 0,-1.8906494 0.9197754,-3.0556983 0.9197754,-1.1650488 2.7593262,-1.6862549 l 0.5723047,1.645376 Q 7.2938184,3.9315286 6.895249,4.6469094 6.4966797,5.3520706 6.4762402,6.609097 v 2.1461426 q 0,2.3096584 -1.829331,3.2396534 1.829331,0.940215 1.829331,3.260093 v 2.166582 q 0.051099,2.391416 1.5942774,2.922842 z M 20.957593,3.4409817 h 3.065918 V 13.742466 q 0,1.420542 -0.633623,2.514053 -0.623403,1.083291 -1.768013,1.676035 -1.144609,0.592744 -2.585591,0.592744 -2.360756,0 -3.679101,-1.195708 -1.318345,-1.205927 -1.318345,-3.403169 h 3.086358 q 0,1.093511 0.459887,1.614717 0.459888,0.521206 1.451201,0.521206 0.878897,0 1.400103,-0.602964 0.521206,-0.602964 0.521206,-1.716914 z m 5.038324,9.2488523 q 0,-1.645376 0.633623,-2.9330612 0.633623,-1.2876856 1.819112,-1.9928467 1.195708,-0.7051612 2.769545,-0.7051612 2.238121,0 3.648443,1.3694434 1.420542,1.3694434 1.584058,3.7199807 l 0.02044,0.75626 q 0,2.544712 -1.420542,4.08789 -1.420542,1.532959 -3.811958,1.532959 -2.391416,0 -3.822178,-1.532959 -1.420542,-1.532959 -1.420542,-4.169648 z m 2.953501,0.214615 q 0,1.573838 0.592744,2.411855 0.592744,0.827798 1.696475,0.827798 1.073071,0 1.676035,-0.817578 0.602964,-0.827798 0.602964,-2.63669 0,-1.543178 -0.602964,-2.391416 -0.602964,-0.848237 -1.696475,-0.848237 -1.083291,0 -1.676035,0.848237 -0.592744,0.838018 -0.592744,2.606031 z m 8.880945,-0.214615 q 0,-1.645376 0.633623,-2.9330612 0.633623,-1.2876856 1.819112,-1.9928467 1.195708,-0.7051612 2.769545,-0.7051612 2.238121,0 3.648443,1.3694434 1.420542,1.3694434 1.584058,3.7199807 l 0.02044,0.75626 q 0,2.544712 -1.420542,4.08789 -1.420542,1.532959 -3.811958,1.532959 -2.391416,0 -3.822178,-1.532959 -1.420542,-1.532959 -1.420542,-4.169648 z m 2.953501,0.214615 q 0,1.573838 0.592744,2.411855 0.592744,0.827798 1.696475,0.827798 1.073071,0 1.676035,-0.817578 0.602964,-0.827798 0.602964,-2.63669 0,-1.543178 -0.602964,-2.391416 -0.602964,-0.848237 -1.696475,-0.848237 -1.083291,0 -1.676035,0.848237 -0.592744,0.838018 -0.592744,2.606031 z m 12.059276,-5.6412895 0.09198,1.2774658 q 1.185488,-1.4818604 3.178335,-1.4818604 1.757793,0 2.61625,1.0321924 0.858457,1.0321924 0.878896,3.0863577 v 7.143589 h -2.953501 v -7.072051 q 0,-0.940215 -0.408789,-1.3592238 -0.408789,-0.4292285 -1.359223,-0.4292285 -1.246807,0 -1.87021,1.0628513 v 7.797652 H 50.063375 V 7.2631595 Z M 68.254488,18.320904 q -0.204394,-0.39857 -0.296372,-0.991314 -1.073071,1.195708 -2.789985,1.195708 -1.624937,0 -2.698008,-0.940215 -1.062851,-0.940214 -1.062851,-2.370976 0,-1.757793 1.297905,-2.698008 1.308125,-0.940215 3.771079,-0.950435 h 1.359224 v -0.633623 q 0,-0.766479 -0.39857,-1.2263668 -0.388349,-0.4598877 -1.236587,-0.4598877 -0.74604,0 -1.175268,0.3576904 -0.419009,0.3576904 -0.419009,0.9810941 h -2.953501 q 0,-0.9606547 0.592744,-1.7782328 0.592744,-0.8175781 1.676035,-1.2774658 1.083291,-0.4701075 2.432295,-0.4701075 2.043946,0 3.239654,1.0321924 Q 70.7992,9.11293 70.7992,10.97292 v 4.793052 q 0.01022,1.573838 0.439449,2.381196 v 0.173736 z m -2.442514,-2.054165 q 0.654062,0 1.205927,-0.286153 0.551866,-0.296372 0.817579,-0.786919 v -1.900869 h -1.103731 q -2.217681,0 -2.360757,1.532959 l -0.01022,0.173736 q 0,0.551865 0.388349,0.909555 0.38835,0.357691 1.062852,0.357691 z m 13.244762,-1.001534 q 0,-0.541645 -0.541646,-0.848237 -0.531425,-0.316811 -1.716914,-0.562085 -3.944814,-0.827798 -3.944814,-3.35207 0,-1.4716408 1.216147,-2.4527346 1.226367,-0.9913135 3.198775,-0.9913135 2.105263,0 3.36229,0.9913135 1.267246,0.9913135 1.267246,2.5753716 h -2.953501 q 0,-0.6336235 -0.408789,-1.0424126 -0.408789,-0.4190088 -1.277466,-0.4190088 -0.74604,0 -1.154829,0.337251 -0.408789,0.337251 -0.408789,0.8584574 0,0.490547 0.459887,0.797138 0.470108,0.296372 1.573838,0.521206 1.103731,0.214615 1.859991,0.490547 2.340317,0.858457 2.340317,2.973941 0,1.512519 -1.297905,2.452734 -1.297906,0.929995 -3.352071,0.929995 -1.389882,0 -2.473173,-0.490547 -1.073072,-0.500766 -1.686255,-1.359223 -0.613184,-0.868677 -0.613184,-1.87021 h 2.800205 q 0.04088,0.786919 0.582525,1.205928 0.541645,0.419008 1.451201,0.419008 0.848237,0 1.277466,-0.316811 0.439448,-0.327031 0.439448,-0.848238 z m 9.197756,5.079205 q 1.553398,-0.551866 1.594277,-2.963721 v -2.166582 q 0,-2.309658 1.87021,-3.208994 -1.87021,-0.899336 -1.87021,-3.2600932 V 6.609097 Q 89.80789,4.2279006 88.254492,3.6453762 l 0.572304,-1.645376 q 1.829331,0.5109864 2.749107,1.6760352 0.919775,1.1548291 0.929995,3.0352588 v 2.1972413 q 0.04088,2.0337255 1.819111,2.0337255 v 2.115484 q -1.819111,0 -1.819111,2.135922 v 2.217681 q -0.08176,3.576904 -3.679102,4.588657 z"
     id="text1"/>
</svg>
