<?xml version="1.0" encoding="UTF-8" standalone="no"?>
<!-- Created with Inkscape (http://www.inkscape.org/) -->

<svg
   width="28.323pt"
   height="24pt"
   viewBox="0 0 28.323 24"
   version="1.1"
   id="svg1"
   xmlns="http://www.w3.org/2000/svg"
   xmlns:svg="http://www.w3.org/2000/svg">
  <g
     id="layer1"
     transform="translate(-9.657504,-1.0483426)">
    <path
       style="fill:#000000"
       d="m 29.909934,21.392746 q 1.5534,-0.55186 1.59427,-2.96372 v -2.166581 q 0,-2.309657 1.87021,-3.208993 -1.87021,-0.899335 -1.87021,-3.2600924 v -2.135922 q -0.041,-2.381195 -1.59427,-2.96372 l 0.5723,-1.645375 q 1.82933,0.51099 2.74911,1.676035 0.9198,1.154828 0.93,3.035257 v 2.197241 q 0.041,2.0337254 1.81911,2.0337254 v 2.115482 q -1.81911,0 -1.81911,2.135922 v 2.21768 q -0.082,3.576904 -3.6791,4.588658 z"
       id="path17" />
    <path
       style="fill:#6ff700"
       d="m 25.198644,4.4893236 h 3.06591 V 14.790805 q 0,1.420541 -0.6336,2.514052 -0.6234,1.083291 -1.76801,1.676034 -1.14461,0.59274 -2.58559,0.59274 -2.36076,0 -3.67911,-1.195707 -1.31834,-1.205927 -1.31834,-3.403168 h 3.08636 q 0,1.093511 0.4599,1.614716 0.4599,0.52121 1.4512,0.52121 0.8789,0 1.4001,-0.60296 0.5212,-0.60296 0.5212,-1.716914 z"
       id="path16" />
    <path
       style="fill:#000000"
       d="m 17.155714,23.048343 q -3.6791,-1.032193 -3.6791,-4.752173 v -2.033725 q 0,-2.156362 -1.81911,-2.156362 v -2.115482 q 1.77823,0 1.81911,-2.0337254 v -2.166582 q 0,-1.890648 0.9198,-3.055697 0.9198,-1.165048 2.75932,-1.686254 l 0.5723,1.645375 q -0.7767,0.28615 -1.17526,1.001533 -0.3986,0.70516 -0.419,1.962187 v 2.146142 q 0,2.3096584 -1.82933,3.2396534 1.82933,0.94021 1.82933,3.260091 v 2.166581 q 0.051,2.391415 1.59427,2.922841 z"
       id="text16" />
  </g>
</svg>
